<svg width="115" height="31" viewBox="0 0 115 31" fill="none" xmlns="http://www.w3.org/2000/svg">
<path d="M17.2498 15.1797L7.24979 10.1797C6.08312 9.01302 4.44979 6.17969 7.24979 4.17969C10.0498 2.17969 11.7499 1.67969 12.2499 1.67969C12.9166 1.67969 14.1325 2.03257 14.7499 2.67969C15.704 3.67969 15.7499 5.17969 13.7499 6.67969C12.1499 7.87969 6.25 11.3464 3.25 12.6797C0.250098 14.013 0.249757 16.6797 3.25 18.1797C6.32771 19.7184 11.9166 23.1797 14.7499 24.6797C16.3745 25.5398 14.7499 30.1797 12.75 29.1797C10.25 28.1797 6.27673 26.1091 5.75002 24.1797C5.20405 22.1797 6.75003 20.1797 9.25003 18.6797C11.25 17.4797 15.4165 15.8464 17.2498 15.1797Z" stroke="black" stroke-width="2" stroke-linejoin="round"/>
<path d="M18 15.1797L28 10.1797C29.1666 9.01302 30.8 6.17969 28 4.17969C25.2 2.17969 23.4999 1.67969 22.9998 1.67969C22.3332 1.67969 21.1173 2.03257 20.4998 2.67969C19.5457 3.67969 19.4998 5.17969 21.4998 6.67969C23.0998 7.87969 28.9998 11.3464 31.9998 12.6797C34.9997 14.013 35 16.6797 31.9998 18.1797C28.922 19.7184 23.3332 23.1797 20.4998 24.6797C18.8752 25.5398 20.4999 30.1797 22.4997 29.1797C24.9997 28.1797 28.973 26.1091 29.4997 24.1797C30.0457 22.1797 28.4997 20.1797 25.9997 18.6797C23.9997 17.4797 19.8332 15.8464 18 15.1797Z" stroke="black" stroke-width="2" stroke-linejoin="round"/>
<path d="M48.0395 24V7.70909H54.0054C55.1615 7.70909 56.1187 7.9 56.877 8.28182C57.6354 8.65833 58.2028 9.17008 58.5793 9.81705C58.9558 10.4587 59.1441 11.1826 59.1441 11.9886C59.1441 12.6674 59.0195 13.2402 58.7702 13.7068C58.521 14.1682 58.1869 14.5394 57.7679 14.8205C57.3543 15.0962 56.8982 15.2977 56.3998 15.425V15.5841C56.9407 15.6106 57.4683 15.7856 57.9827 16.1091C58.5024 16.4273 58.932 16.8807 59.2713 17.4693C59.6107 18.058 59.7804 18.7739 59.7804 19.617C59.7804 20.4496 59.5842 21.1973 59.1918 21.8602C58.8047 22.5178 58.2054 23.0402 57.3941 23.4273C56.5827 23.8091 55.546 24 54.2838 24H48.0395ZM50.4975 21.892H54.0452C55.2225 21.892 56.0657 21.664 56.5748 21.208C57.0838 20.7519 57.3384 20.1818 57.3384 19.4977C57.3384 18.9833 57.2085 18.5114 56.9486 18.0818C56.6888 17.6523 56.3176 17.3102 55.835 17.0557C55.3577 16.8011 54.7903 16.6739 54.1327 16.6739H50.4975V21.892ZM50.4975 14.7568H53.7907C54.3422 14.7568 54.838 14.6508 55.2782 14.4386C55.7236 14.2265 56.0763 13.9295 56.3361 13.5477C56.6013 13.1606 56.7338 12.7045 56.7338 12.1795C56.7338 11.5061 56.4979 10.9413 56.0259 10.4852C55.5539 10.0292 54.8301 9.80114 53.8543 9.80114H50.4975V14.7568ZM62.5049 24V11.7818H64.8037V13.7227H64.931C65.1537 13.0652 65.5462 12.5481 66.1083 12.1716C66.6757 11.7898 67.3174 11.5989 68.0333 11.5989C68.1818 11.5989 68.3568 11.6042 68.5583 11.6148C68.7651 11.6254 68.9268 11.6386 69.0435 11.6545V13.9295C68.9481 13.903 68.7784 13.8739 68.5344 13.842C68.2905 13.8049 68.0465 13.7864 67.8026 13.7864C67.2405 13.7864 66.7393 13.9057 66.2992 14.1443C65.8643 14.3777 65.5196 14.7038 65.2651 15.1227C65.0106 15.5364 64.8833 16.0083 64.8833 16.5386V24H62.5049ZM74.5481 24.2705C73.7738 24.2705 73.0738 24.1273 72.4481 23.8409C71.8223 23.5492 71.3265 23.1277 70.9606 22.5761C70.5999 22.0246 70.4196 21.3485 70.4196 20.5477C70.4196 19.8583 70.5522 19.2909 70.8174 18.8455C71.0825 18.4 71.4405 18.0473 71.8912 17.7875C72.342 17.5277 72.8458 17.3314 73.4026 17.1989C73.9594 17.0663 74.5268 16.9655 75.1049 16.8966C75.8367 16.8117 76.4306 16.7428 76.8867 16.6898C77.3427 16.6314 77.6742 16.5386 77.881 16.4114C78.0878 16.2841 78.1912 16.0773 78.1912 15.7909V15.7352C78.1912 15.0405 77.995 14.5023 77.6026 14.1205C77.2155 13.7386 76.6374 13.5477 75.8685 13.5477C75.0677 13.5477 74.4367 13.7254 73.9753 14.0807C73.5193 14.4307 73.2037 14.8205 73.0287 15.25L70.7935 14.7409C71.0587 13.9985 71.4458 13.3992 71.9549 12.9432C72.4693 12.4818 73.0606 12.1477 73.7287 11.9409C74.3969 11.7288 75.0996 11.6227 75.8367 11.6227C76.3246 11.6227 76.8416 11.6811 77.3878 11.7977C77.9393 11.9091 78.4537 12.1159 78.931 12.4182C79.4136 12.7205 79.8087 13.1527 80.1162 13.7148C80.4238 14.2716 80.5776 14.9955 80.5776 15.8864V24H78.2549V22.3295H78.1594C78.0056 22.6371 77.7749 22.9394 77.4674 23.2364C77.1598 23.5333 76.7647 23.7799 76.2821 23.9761C75.7996 24.1723 75.2215 24.2705 74.5481 24.2705ZM75.0651 22.3614C75.7227 22.3614 76.2848 22.2314 76.7515 21.9716C77.2234 21.7117 77.5814 21.3723 77.8253 20.9534C78.0746 20.5292 78.1992 20.0758 78.1992 19.5932V18.0182C78.1143 18.103 77.9499 18.1826 77.706 18.2568C77.4674 18.3258 77.1943 18.3867 76.8867 18.4398C76.5791 18.4875 76.2795 18.5326 75.9878 18.575C75.6962 18.6121 75.4522 18.6439 75.256 18.6705C74.7946 18.7288 74.3731 18.8269 73.9912 18.9648C73.6147 19.1027 73.3124 19.3015 73.0844 19.5614C72.8617 19.8159 72.7503 20.1553 72.7503 20.5795C72.7503 21.1682 72.9677 21.6136 73.4026 21.9159C73.8374 22.2129 74.3916 22.3614 75.0651 22.3614ZM83.7455 24V11.7818H86.1239V24H83.7455ZM84.9466 9.89659C84.533 9.89659 84.1777 9.75871 83.8807 9.48295C83.5891 9.20189 83.4432 8.8678 83.4432 8.48068C83.4432 8.08826 83.5891 7.75417 83.8807 7.47841C84.1777 7.19735 84.533 7.05682 84.9466 7.05682C85.3603 7.05682 85.7129 7.19735 86.0046 7.47841C86.3016 7.75417 86.45 8.08826 86.45 8.48068C86.45 8.8678 86.3016 9.20189 86.0046 9.48295C85.7129 9.75871 85.3603 9.89659 84.9466 9.89659ZM91.702 16.7455V24H89.3236V11.7818H91.6066V13.7705H91.7577C92.0388 13.1235 92.4789 12.6038 93.0782 12.2114C93.6827 11.8189 94.4437 11.6227 95.3611 11.6227C96.1937 11.6227 96.9229 11.7977 97.5486 12.1477C98.1744 12.4924 98.6596 13.0068 99.0043 13.6909C99.349 14.375 99.5213 15.2208 99.5213 16.2284V24H97.1429V16.5148C97.1429 15.6292 96.9123 14.9371 96.4509 14.4386C95.9895 13.9348 95.3558 13.683 94.5498 13.683C93.9982 13.683 93.5077 13.8023 93.0782 14.0409C92.6539 14.2795 92.3172 14.6295 92.0679 15.0909C91.824 15.547 91.702 16.0985 91.702 16.7455ZM103.777 28.5818C103.422 28.5818 103.098 28.5527 102.807 28.4943C102.515 28.4413 102.297 28.383 102.154 28.3193L102.727 26.3705C103.162 26.4871 103.549 26.5375 103.888 26.5216C104.228 26.5057 104.527 26.3784 104.787 26.1398C105.052 25.9011 105.286 25.5114 105.487 24.9705L105.782 24.1591L101.311 11.7818H103.857L106.951 21.2636H107.078L110.172 11.7818H112.726L107.691 25.6307C107.457 26.267 107.16 26.8053 106.8 27.2455C106.439 27.6909 106.01 28.025 105.511 28.2477C105.013 28.4705 104.435 28.5818 103.777 28.5818Z" fill="#19213D"/>
</svg>
